<mxfile host="65bd71144e">
    <diagram id="ivDqmEOzPzrzyxDTokXK" name="Page-1">
        <mxGraphModel dx="741" dy="1019" grid="1" gridSize="10" guides="1" tooltips="1" connect="1" arrows="1" fold="1" page="1" pageScale="1" pageWidth="1169" pageHeight="827" math="0" shadow="0">
            <root>
                <mxCell id="0"/>
                <mxCell id="1" parent="0"/>
                <mxCell id="7" value="parse" style="edgeStyle=none;html=1;rounded=1;" parent="1" source="3" target="6" edge="1">
                    <mxGeometry relative="1" as="geometry"/>
                </mxCell>
                <mxCell id="3" value="BySquare tabbed string model" style="whiteSpace=wrap;html=1;rounded=1;" parent="1" vertex="1">
                    <mxGeometry x="240" y="40" width="120" height="60" as="geometry"/>
                </mxCell>
                <mxCell id="5" value="generate" style="edgeStyle=none;html=1;entryX=0;entryY=0.5;entryDx=0;entryDy=0;rounded=1;" parent="1" source="4" target="3" edge="1">
                    <mxGeometry relative="1" as="geometry"/>
                </mxCell>
                <mxCell id="4" value="Structured model" style="whiteSpace=wrap;html=1;rounded=1;" parent="1" vertex="1">
                    <mxGeometry x="40" y="40" width="120" height="60" as="geometry"/>
                </mxCell>
                <mxCell id="8" value="identical" style="html=1;entryX=0.5;entryY=1;entryDx=0;entryDy=0;edgeStyle=orthogonalEdgeStyle;rounded=1;" parent="1" source="6" target="4" edge="1">
                    <mxGeometry relative="1" as="geometry">
                        <Array as="points">
                            <mxPoint x="500" y="140"/>
                            <mxPoint x="100" y="140"/>
                        </Array>
                    </mxGeometry>
                </mxCell>
                <mxCell id="6" value="Structured model" style="whiteSpace=wrap;html=1;rounded=1;" parent="1" vertex="1">
                    <mxGeometry x="440" y="40" width="120" height="60" as="geometry"/>
                </mxCell>
            </root>
        </mxGraphModel>
    </diagram>
</mxfile>
